<?xml version="1.0" encoding="utf-8"?>
<!-- Generator: Adobe Illustrator 16.0.0, SVG Export Plug-In . SVG Version: 6.00 Build 0)  -->
<!DOCTYPE svg PUBLIC "-//W3C//DTD SVG 1.1//EN" "http://www.w3.org/Graphics/SVG/1.1/DTD/svg11.dtd">
<svg version="1.1" id="Layer_1" xmlns="http://www.w3.org/2000/svg" xmlns:xlink="http://www.w3.org/1999/xlink" x="0px" y="0px"
	 width="98.131px" height="37.193px" viewBox="0 -0.088 98.131 37.193" enable-background="new 0 -0.088 98.131 37.193"
	 xml:space="preserve">
<g>
	<g>
		<path fill="#2058A8" d="M30.422,15.09l-6.621,5.416l-11.388-2.691c-1.889-0.448-4.101,0.255-4.915,1.561l-2.785,4.468
			l-4.294-1.552v4.996c-0.002,0.057-0.002-0.274,0-0.221v0.388v0.388c0.046,0.938,0.933,2.001,2.254,2.495
			c4.487,1.683,16.91,6.048,16.91,6.048c1.89,0.447,3.613,0.837,4.916-1.947c2.237-4.779,5.619-11.652,5.619-11.652
			c0.202-0.325,0.299-0.655,0.303-0.979h0.001V15.09z"/>
		
			<path fill="none" stroke="#21428A" stroke-width="0.75" stroke-linecap="round" stroke-linejoin="round" stroke-miterlimit="10" d="
			M30.422,15.09l-6.621,5.416l-11.388-2.691c-1.889-0.448-4.101,0.255-4.915,1.561l-2.785,4.468l-4.294-1.552v4.996
			c-0.002,0.057-0.002-0.274,0-0.221v0.388v0.388c0.046,0.938,0.933,2.001,2.254,2.495c4.487,1.683,16.91,6.048,16.91,6.048
			c1.89,0.447,3.613,0.837,4.916-1.947c2.237-4.779,5.619-11.652,5.619-11.652c0.202-0.325,0.299-0.655,0.303-0.979h0.001V15.09z"/>
		<path fill="#77B4D4" d="M18.421,29.671L2.673,24.787c-1.891-0.446-2.77-1.881-1.957-3.186l6.781-9.714
			c0.815-1.308,3.027-2.01,4.916-1.563l15.749,3.722c1.889,0.446,2.77,0.719,1.956,2.023L23.336,28.11
			C21.376,30.832,20.311,30.12,18.421,29.671"/>
		
			<path fill="none" stroke="#21428A" stroke-width="0.75" stroke-linecap="round" stroke-linejoin="round" stroke-miterlimit="10" d="
			M18.421,29.671L2.673,24.787c-1.891-0.446-2.77-1.881-1.957-3.186l6.781-9.714c0.815-1.308,3.027-2.01,4.916-1.563l15.749,3.722
			c1.889,0.446,2.77,0.719,1.956,2.023L23.336,28.11C21.376,30.832,20.311,30.12,18.421,29.671z"/>
		
			<path fill="none" stroke="#77B4D4" stroke-width="0.25" stroke-linecap="round" stroke-linejoin="round" stroke-miterlimit="10" d="
			M30.393,19.032l-7.197,12.826c-0.278,0.482-0.504,0.867-0.756,1.145c-0.478,0.529-1.043,0.671-2.227,0.388L0.419,27.066"/>
		<path fill="#21428A" d="M19.891,18.777c-0.179,1.849-2.195,3.167-4.503,2.944c-2.309-0.225-4.034-1.904-3.855-3.754
			c0.179-1.848,2.195-3.167,4.502-2.943C18.343,15.248,20.069,16.929,19.891,18.777"/>
		
			<ellipse transform="matrix(0.0963 -0.9954 0.9954 0.0963 -4.0888 32.244)" fill="none" stroke="#21428A" stroke-width="0.75" stroke-linecap="round" stroke-linejoin="round" stroke-miterlimit="10" cx="15.713" cy="18.374" rx="3.364" ry="4.199"/>
		<path fill="#A4C241" d="M21.65,26.199c-0.224,1.185-1.462,1.947-2.768,1.702c-1.304-0.245-2.183-1.404-1.959-2.59
			c0.223-1.187,1.461-1.947,2.765-1.703C20.995,23.853,21.872,25.014,21.65,26.199"/>
		
			<ellipse transform="matrix(0.1847 -0.9828 0.9828 0.1847 -9.5871 39.9531)" fill="none" stroke="#21428A" stroke-width="0.25" stroke-linecap="round" stroke-linejoin="round" stroke-miterlimit="10" cx="19.286" cy="25.755" rx="2.184" ry="2.405"/>
		<path fill="#A0B642" stroke="#21428A" stroke-width="0.25" stroke-miterlimit="10" d="M20.916,25.629
			c-0.152,0.812-0.999,1.333-1.893,1.164c-0.893-0.166-1.494-0.961-1.341-1.771c0.152-0.813,0.999-1.333,1.893-1.165
			C20.467,24.024,21.067,24.818,20.916,25.629"/>
		
			<ellipse transform="matrix(0.1846 -0.9828 0.9828 0.1846 -9.1545 39.6166)" fill="none" stroke="#21428A" stroke-width="0.25" stroke-linecap="round" stroke-linejoin="round" stroke-miterlimit="10" cx="19.299" cy="25.325" rx="1.493" ry="1.645"/>
		<path fill="#77B4D4" d="M17.725,0.348c-1.388-0.261-2.675,0.391-2.876,1.456c-0.015,0.081-0.021,0.162-0.022,0.242l-1.532,15.698
			c-0.199,1.065,0.763,2.14,2.15,2.4c1.39,0.261,2.676-0.393,2.875-1.457c0.018-0.094,0.023-0.187,0.023-0.277l1.533-15.663
			C20.075,1.683,19.112,0.608,17.725,0.348"/>
		
			<path fill="none" stroke="#21428A" stroke-width="0.5" stroke-linecap="round" stroke-linejoin="round" stroke-miterlimit="10" d="
			M17.725,0.348c-1.388-0.261-2.675,0.391-2.876,1.456c-0.015,0.081-0.021,0.162-0.022,0.242l-1.532,15.698
			c-0.199,1.065,0.763,2.14,2.15,2.4c1.39,0.261,2.676-0.393,2.875-1.457c0.018-0.094,0.023-0.187,0.023-0.277l1.533-15.663
			C20.075,1.683,19.112,0.608,17.725,0.348z"/>
		
			<path fill="none" stroke="#21428A" stroke-width="0.75" stroke-linecap="round" stroke-linejoin="round" stroke-miterlimit="10" d="
			M30.422,21.805L30.422,21.805c-0.005,0.322-0.102,0.652-0.304,0.979c0,0-3.381,6.873-5.619,11.652
			c-1.303,2.783-3.026,2.396-4.916,1.947c0,0-12.423-4.365-16.91-6.048c-1.321-0.494-2.208-1.557-2.254-2.495v-4.742"/>
		
			<line fill="none" stroke="#21428A" stroke-width="0.75" stroke-linecap="round" stroke-linejoin="round" stroke-miterlimit="10" x1="30.422" y1="21.805" x2="30.422" y2="15.092"/>
		
			<path fill="none" stroke="#21428A" stroke-width="0.5" stroke-linecap="round" stroke-linejoin="round" stroke-miterlimit="10" d="
			M19.876,2.748c-0.201,1.064-1.487,1.717-2.875,1.457s-2.352-1.336-2.152-2.4c0.201-1.063,1.488-1.717,2.876-1.456
			C19.113,0.608,20.075,1.683,19.876,2.748z"/>
		<path fill="#77B4D4" stroke="#21428A" stroke-width="0.25" stroke-miterlimit="10" d="M19.083,2.135
			c-0.137,0.73-1.018,1.176-1.968,0.997c-0.95-0.178-1.609-0.913-1.472-1.643c0.137-0.729,1.017-1.175,1.968-0.997
			C18.56,0.672,19.22,1.407,19.083,2.135"/>
		
			<ellipse transform="matrix(0.1844 -0.9829 0.9829 0.1844 12.3798 18.5433)" fill="none" stroke="#21428A" stroke-width="0.25" stroke-linecap="round" stroke-linejoin="round" stroke-miterlimit="10" cx="17.362" cy="1.813" rx="1.343" ry="1.75"/>
		<path fill="#FFFFFF" d="M10.438,25.471l-5.822-1.619c-0.25-0.068-0.399-0.333-0.329-0.584l0.039-0.145
			c0.07-0.251,0.333-0.397,0.585-0.33l5.822,1.619c0.252,0.071,0.399,0.333,0.33,0.585l-0.04,0.145
			C10.953,25.394,10.69,25.542,10.438,25.471"/>
		<path fill="#FFFFFF" d="M3.229,23.466l-0.415-0.113c-0.25-0.071-0.399-0.334-0.329-0.586l0.041-0.144
			c0.07-0.251,0.332-0.399,0.583-0.33l0.415,0.115c0.25,0.07,0.399,0.333,0.329,0.584l-0.041,0.146
			C3.742,23.388,3.48,23.537,3.229,23.466"/>
		<path fill="#FFFFFF" d="M16.567,5.838l-0.47,6.026c-0.021,0.26-0.25,0.456-0.51,0.436l-0.149-0.012
			c-0.259-0.02-0.455-0.249-0.436-0.511l0.47-6.023c0.021-0.262,0.25-0.458,0.51-0.438l0.149,0.012
			C16.392,5.349,16.588,5.579,16.567,5.838"/>
		<path fill="#FFFFFF" d="M15.984,13.301l-0.033,0.428c-0.021,0.259-0.25,0.457-0.51,0.436l-0.149-0.011
			c-0.261-0.021-0.457-0.25-0.436-0.51l0.033-0.429c0.02-0.261,0.25-0.458,0.51-0.436l0.148,0.011
			C15.809,12.81,16.005,13.039,15.984,13.301"/>
		<path fill="#FFFFFF" d="M16.877,0.873l0.427,0.034c0.261,0.019,0.457,0.25,0.436,0.51l-0.012,0.149
			c-0.02,0.259-0.25,0.456-0.51,0.436L16.79,1.969c-0.261-0.021-0.457-0.25-0.436-0.511l0.011-0.146
			C16.386,1.051,16.616,0.853,16.877,0.873"/>
	</g>
	<g>
		<g>
			<path fill="#FFFFFF" d="M37.492,14.441c0.422,0.257,1.294,0.541,1.97,0.541c0.693,0,0.979-0.225,0.979-0.601
				c0-0.393-0.224-0.574-1.066-0.856c-1.535-0.513-2.121-1.34-2.107-2.21c0-1.385,1.175-2.421,2.993-2.421
				c0.857,0,1.61,0.208,2.061,0.434l-0.391,1.581c-0.331-0.181-0.98-0.422-1.595-0.422c-0.556,0-0.873,0.226-0.873,0.587
				c0,0.36,0.288,0.541,1.19,0.856c1.396,0.483,1.968,1.203,1.982,2.271c0,1.384-1.066,2.39-3.173,2.39
				c-0.96,0-1.819-0.224-2.376-0.524L37.492,14.441L37.492,14.441z"/>
			<path fill="#FFFFFF" d="M47.028,7.085v1.987h1.638v1.684h-1.638v2.662c0,0.89,0.227,1.295,0.9,1.295
				c0.317,0,0.469-0.015,0.679-0.062l0.016,1.728c-0.285,0.107-0.842,0.197-1.475,0.197c-0.737,0-1.353-0.255-1.729-0.631
				c-0.422-0.438-0.633-1.144-0.633-2.181v-3.009h-0.978V9.072h0.978V7.701L47.028,7.085L47.028,7.085z"/>
			<path fill="#FFFFFF" d="M54.804,11.915c0-0.556-0.24-1.489-1.291-1.489c-0.965,0-1.354,0.89-1.414,1.489H54.804L54.804,11.915z
				 M52.11,13.48c0.062,0.944,1.01,1.397,2.078,1.397c0.781,0,1.412-0.106,2.027-0.316l0.303,1.549
				c-0.752,0.313-1.67,0.466-2.662,0.466c-2.498,0-3.926-1.443-3.926-3.746c0-1.864,1.157-3.924,3.717-3.924
				c2.373,0,3.274,1.849,3.274,3.67c0,0.389-0.043,0.734-0.073,0.903L52.11,13.48L52.11,13.48z"/>
			<path fill="#FFFFFF" d="M58.999,16.425v-5.669h-0.979V9.072h0.979V8.787c0-0.887,0.271-1.865,0.917-2.466
				c0.588-0.543,1.369-0.737,2.047-0.737c0.496,0,0.888,0.076,1.203,0.15l-0.091,1.758c-0.194-0.059-0.436-0.104-0.737-0.104
				c-0.752,0-1.067,0.585-1.067,1.309v0.375h1.476v1.684h-1.46v5.669H58.999L58.999,16.425z"/>
			<path fill="#FFFFFF" d="M68.205,12.952c-1.204,0-2.136,0.287-2.136,1.159c0,0.587,0.389,0.872,0.902,0.872
				c0.555,0,1.035-0.376,1.187-0.84c0.03-0.121,0.047-0.258,0.047-0.394V12.952L68.205,12.952z M70.416,14.651
				c0,0.691,0.028,1.367,0.118,1.773h-2.061l-0.136-0.735h-0.042c-0.482,0.588-1.236,0.9-2.105,0.9
				c-1.487,0-2.379-1.082-2.379-2.254c0-1.911,1.715-2.812,4.316-2.812v-0.091c0-0.407-0.21-0.964-1.34-0.964
				c-0.75,0-1.551,0.258-2.03,0.557l-0.42-1.472c0.513-0.287,1.521-0.661,2.856-0.661c2.451,0,3.221,1.442,3.221,3.186
				L70.416,14.651L70.416,14.651z"/>
			<path fill="#FFFFFF" d="M72.671,11.417c0-0.916-0.029-1.684-0.061-2.345h1.986l0.104,1.022h0.047
				c0.3-0.481,1.036-1.188,2.27-1.188c1.506,0,2.631,1.005,2.631,3.172v4.346h-2.285v-4.073c0-0.947-0.33-1.596-1.157-1.596
				c-0.632,0-1.009,0.438-1.175,0.857c-0.059,0.151-0.073,0.361-0.073,0.571v4.239h-2.286V11.417L72.671,11.417z"/>
			<polygon fill="#FFFFFF" points="81.919,16.425 81.919,9.072 84.209,9.072 84.209,16.425 			"/>
			<path fill="#FFFFFF" d="M86.476,11.417c0-0.916-0.025-1.684-0.06-2.345h1.985l0.104,1.022h0.046
				c0.303-0.481,1.04-1.188,2.272-1.188c1.504,0,2.631,1.005,2.631,3.172v4.346H91.17v-4.073c0-0.947-0.333-1.596-1.155-1.596
				c-0.633,0-1.011,0.438-1.179,0.857c-0.06,0.151-0.071,0.361-0.071,0.571v4.239h-2.289V11.417L86.476,11.417z"/>
			<polygon fill="#FFFFFF" points="95.728,16.425 95.728,9.072 98.015,9.072 98.015,16.425 			"/>
		</g>
		<g>
			<path fill="#A4C241" d="M48.122,29.717c-0.603,0.515-1.276,0.91-2.019,1.184c-0.741,0.273-1.516,0.413-2.316,0.413
				c-0.618,0-1.211-0.08-1.78-0.24c-0.572-0.16-1.104-0.387-1.598-0.681c-0.496-0.292-0.947-0.643-1.358-1.051
				c-0.41-0.405-0.761-0.858-1.051-1.355c-0.289-0.499-0.515-1.033-0.673-1.607c-0.16-0.571-0.241-1.169-0.241-1.782
				c0-0.615,0.081-1.207,0.241-1.775c0.158-0.565,0.384-1.099,0.673-1.598c0.29-0.497,0.641-0.95,1.051-1.356
				c0.411-0.408,0.862-0.757,1.358-1.048c0.494-0.289,1.025-0.513,1.598-0.673c0.569-0.16,1.162-0.24,1.78-0.24
				c0.801,0,1.575,0.139,2.316,0.412c0.742,0.273,1.416,0.669,2.019,1.181l-1.358,2.265c-0.391-0.398-0.844-0.712-1.357-0.938
				c-0.514-0.225-1.054-0.339-1.619-0.339c-0.569,0-1.102,0.108-1.6,0.325c-0.497,0.22-0.935,0.512-1.308,0.884
				c-0.374,0.372-0.67,0.806-0.887,1.304c-0.217,0.497-0.326,1.031-0.326,1.599c0,0.573,0.109,1.109,0.326,1.608
				c0.217,0.504,0.513,0.941,0.887,1.315c0.373,0.373,0.811,0.67,1.308,0.886c0.498,0.217,1.03,0.328,1.6,0.328
				c0.325,0,0.641-0.042,0.949-0.12c0.309-0.077,0.602-0.188,0.879-0.325v-3.692h2.507L48.122,29.717L48.122,29.717z"/>
			<path fill="#A4C241" d="M60.362,31.032h-2.6v-2.599h-5.197v2.599h-2.588v-7.785c0-0.72,0.137-1.395,0.406-2.023
				c0.271-0.632,0.643-1.183,1.111-1.651c0.466-0.471,1.016-0.842,1.645-1.114c0.631-0.271,1.307-0.406,2.025-0.406
				c0.717,0,1.393,0.136,2.023,0.406c0.631,0.272,1.182,0.645,1.65,1.114c0.473,0.47,0.842,1.021,1.114,1.651
				c0.271,0.63,0.407,1.305,0.407,2.023v7.785H60.362z M57.763,25.844v-2.598c0-0.357-0.066-0.693-0.203-1.011
				c-0.136-0.314-0.319-0.592-0.556-0.827c-0.235-0.235-0.512-0.421-0.829-0.557c-0.316-0.137-0.654-0.205-1.009-0.205
				c-0.356,0-0.692,0.068-1.011,0.205c-0.316,0.136-0.594,0.32-0.828,0.557c-0.232,0.235-0.42,0.513-0.557,0.827
				c-0.137,0.316-0.205,0.652-0.205,1.011v2.598H57.763z"/>
			<path fill="#A4C241" d="M75.498,31.032h-2.59V21.76c0-0.181-0.034-0.35-0.103-0.508c-0.068-0.154-0.164-0.294-0.281-0.41
				c-0.118-0.117-0.254-0.21-0.412-0.276c-0.156-0.064-0.326-0.099-0.508-0.099c-0.181,0-0.35,0.033-0.506,0.099
				c-0.156,0.066-0.295,0.159-0.412,0.276c-0.119,0.116-0.209,0.256-0.275,0.41c-0.066,0.158-0.102,0.327-0.102,0.508v9.271h-2.596
				V21.76c0-0.181-0.035-0.35-0.102-0.508c-0.066-0.154-0.159-0.294-0.276-0.41c-0.116-0.117-0.254-0.21-0.412-0.276
				c-0.155-0.064-0.325-0.099-0.507-0.099c-0.18,0-0.35,0.033-0.506,0.099c-0.158,0.066-0.295,0.159-0.412,0.276
				c-0.12,0.116-0.21,0.256-0.275,0.41c-0.068,0.158-0.102,0.327-0.102,0.508v9.271h-2.598V21.76c0-0.534,0.101-1.042,0.304-1.517
				c0.202-0.472,0.479-0.888,0.834-1.24c0.353-0.354,0.765-0.63,1.239-0.834c0.473-0.198,0.979-0.302,1.516-0.302
				c0.482,0,0.948,0.085,1.395,0.258c0.447,0.172,0.848,0.422,1.205,0.747c0.354-0.325,0.756-0.575,1.198-0.747
				c0.444-0.173,0.908-0.258,1.39-0.258c0.539,0,1.045,0.104,1.518,0.302c0.475,0.204,0.888,0.48,1.238,0.834
				c0.354,0.354,0.632,0.77,0.834,1.24c0.203,0.475,0.304,0.981,0.304,1.517V31.032z"/>
			<path fill="#A4C241" d="M86.716,31.032h-8.898V18.05h8.898v2.598h-6.301v2.6h4.264v2.598h-4.264v2.59h6.301V31.032z"/>
			<path fill="#A4C241" d="M87.63,21.941c0-0.536,0.104-1.039,0.309-1.511s0.483-0.883,0.838-1.236
				c0.352-0.353,0.764-0.63,1.234-0.838c0.471-0.203,0.977-0.307,1.512-0.307h5.957v2.598h-5.957c-0.181,0-0.351,0.034-0.506,0.1
				c-0.158,0.067-0.293,0.158-0.412,0.276c-0.117,0.119-0.211,0.256-0.276,0.412c-0.065,0.155-0.099,0.325-0.099,0.506
				c0,0.184,0.033,0.353,0.099,0.513s0.159,0.299,0.276,0.416c0.119,0.119,0.254,0.211,0.412,0.278
				c0.155,0.063,0.325,0.099,0.506,0.099h2.6c0.536,0,1.042,0.102,1.516,0.303c0.475,0.202,0.889,0.479,1.241,0.834
				c0.354,0.352,0.631,0.767,0.832,1.239c0.203,0.476,0.306,0.979,0.306,1.517s-0.103,1.042-0.306,1.513
				c-0.201,0.472-0.479,0.881-0.832,1.235c-0.354,0.354-0.769,0.632-1.241,0.837c-0.474,0.206-0.979,0.309-1.516,0.309h-5.768
				v-2.599h5.768c0.182,0,0.35-0.034,0.507-0.101c0.156-0.064,0.294-0.158,0.413-0.274c0.117-0.118,0.209-0.255,0.273-0.413
				c0.066-0.154,0.102-0.324,0.102-0.507c0-0.182-0.034-0.351-0.102-0.507c-0.064-0.158-0.156-0.295-0.273-0.412
				c-0.119-0.117-0.257-0.211-0.413-0.276c-0.157-0.064-0.325-0.099-0.507-0.099h-2.6c-0.535,0-1.041-0.103-1.512-0.308
				c-0.472-0.207-0.884-0.485-1.234-0.839c-0.354-0.354-0.633-0.767-0.838-1.239C87.731,22.985,87.63,22.479,87.63,21.941z"/>
		</g>
	</g>
</g>
</svg>
